<?xml version="1.0" ?><!DOCTYPE svg  PUBLIC '-//W3C//DTD SVG 1.1//EN'  'http://www.w3.org/Graphics/SVG/1.1/DTD/svg11.dtd'><svg enable-background="new 0 0 48 48" height="48px" id="Layer_1" version="1.1" viewBox="0 0 48 48" width="48px" xml:space="preserve" xmlns="http://www.w3.org/2000/svg" xmlns:xlink="http://www.w3.org/1999/xlink"><g id="Layer_4"><path d="M47.948,9.219c-1.868,1.083-5.606,1.597-5.606,1.597l-0.021,0.032c-0.002-0.006-0.004-0.012-0.004-0.018   c0.01-0.006,0.017-0.008,0.025-0.014c2.146-1.317,3.889-3.652,4.262-5.483c-2.278,1.495-6.328,2.462-6.328,2.462l-0.002,0.011   c-1.767-2.174-4.448-3.573-7.467-3.573c-5.324,0-9.642,4.315-9.642,9.639c0,1.034,0.167,2.028,0.468,2.96l-0.168-0.047   l-0.385-0.029c-2.142-0.19-12.88-1.555-19.939-10.133c0,0-4.533,7.223,2.989,13.001c-2.242-0.149-4.334-1.195-4.334-1.195   s-0.398,8.121,7.821,9.665c-1.645,0.846-4.385,0.346-4.385,0.346s2.292,7.074,9.166,6.775C7.859,40.471,0.052,39.35,0.052,39.35   s13.018,9.661,29.728,0.41c0.113-0.061,0.221-0.128,0.33-0.189c0.314-0.178,0.627-0.35,0.945-0.541   c0.014-0.02,0.021-0.035,0.033-0.055c7.254-4.484,12.104-12.486,12.104-21.642c0-0.997-0.072-1.974-0.19-2.938   c0.004-0.002,0.006-0.003,0.01-0.005C45.859,12.593,47.312,10.246,47.948,9.219z" fill="#241F20"/></g></svg>